<svg width="200" height="200" viewBox="0 0 200 200" xmlns="http://www.w3.org/2000/svg">
  <defs>
    <linearGradient id="gSnakeBody" x1="0" y1="0" x2="0" y2="1">
      <stop offset="0%" stop-color="#C3D6AE"/>
      <stop offset="100%" stop-color="#9DB58A"/>
    </linearGradient>
  </defs>
  <ellipse cx="100" cy="180" rx="50" ry="8" fill="#000000" opacity="0.12"/>
  <path d="M 40 90 Q 32 60 100 50 Q 168 60 160 90 Q 158 130 100 150 Q 42 130 40 90 Z" fill="url(#gSnakeBody)" stroke="#FFFFFF" stroke-width="9" stroke-linejoin="round"/>
  <ellipse cx="82" cy="94" rx="6" ry="8" fill="#2B2118"/>
  <ellipse cx="118" cy="94" rx="6" ry="8" fill="#2B2118"/>
  <circle cx="80" cy="91" r="1.6" fill="#FFFFFF"/>
  <circle cx="120" cy="91" r="1.6" fill="#FFFFFF"/>
  <path d="M 100 118 L 100 132 M 100 132 L 94 142 M 100 132 L 106 142" stroke="#FFFFFF" stroke-width="7" fill="none" stroke-linecap="round"/>
  <path d="M 100 118 L 100 132 M 100 132 L 94 142 M 100 132 L 106 142" stroke="#D6483C" stroke-width="3.5" fill="none" stroke-linecap="round"/>
  <circle cx="74" cy="112" r="7" fill="#F7C9DA" opacity="0.85"/>
  <circle cx="126" cy="112" r="7" fill="#F7C9DA" opacity="0.85"/>
</svg>
